<svg width="127" height="48" viewBox="0 0 127 48" fill="none" xmlns="http://www.w3.org/2000/svg">
<mask id="mask0_39_338" style="mask-type:luminance" maskUnits="userSpaceOnUse" x="0" y="0" width="65" height="48">
<path d="M0 0H64.0517V47.5767H0V0Z" fill="white"/>
</mask>
<g mask="url(#mask0_39_338)">
<mask id="mask1_39_338" style="mask-type:luminance" maskUnits="userSpaceOnUse" x="0" y="0" width="64" height="48">
<path d="M56.6348 34.2124C54.9665 37.202 52.7298 39.4753 49.9137 41.0593C47.0991 42.6433 44.0028 43.4297 40.6295 43.4297C37.2546 43.4297 34.1503 42.6385 31.315 41.0593C28.4798 39.4801 26.2272 37.202 24.5652 34.2124C22.8969 31.2227 22.0579 27.7141 22.0579 23.696C22.0579 19.6652 22.8969 16.1646 24.5652 13.1797C26.2224 10.19 28.4798 7.91671 31.315 6.33273C34.1503 4.74875 37.2577 3.96234 40.6327 3.96234C43.9662 3.96234 47.0545 4.75194 49.8898 6.33273C52.725 7.91194 54.9697 10.19 56.6396 13.1797C58.308 16.1693 59.1342 19.6652 59.1342 23.696C59.1342 27.7141 58.3048 31.2227 56.6396 34.2124M60.7627 11.2311C58.6407 7.64449 55.7959 4.86656 52.2236 2.92121C48.6544 0.972675 44.7892 0 40.6327 0C36.4761 0 32.6236 0.972675 29.0465 2.92121C25.4774 4.86974 22.6246 7.64449 20.4739 11.2311C19.0969 13.5554 18.1608 16.0993 17.6785 18.8947H17.5257C16.5689 19.1542 14.4293 19.28 11.0958 19.28H4.92546V4.74398H12.3964C15.6328 4.74398 17.7836 4.86974 18.8167 5.12923H19.2147V0.972675H0V1.37066C0.249934 2.31309 0.383657 4.46539 0.383657 7.79095V39.6011C0.383657 42.9266 0.249934 45.0774 0 46.0214V46.4194H5.32344V46.0214C5.06396 45.0774 4.93024 42.9266 4.93024 39.6011V23.0513H11.0958C14.1619 23.0513 16.2171 23.1579 17.2662 23.3792V23.7008C17.2662 28.4161 18.3344 32.5679 20.4739 36.1657C22.6246 39.7507 25.4774 42.5255 29.0465 44.474C32.6236 46.4225 36.4809 47.3952 40.6327 47.3952C44.786 47.3952 48.6544 46.4225 52.2188 44.474C55.7959 42.5255 58.6407 39.7507 60.7595 36.1657C62.8816 32.5679 63.9386 28.4161 63.9386 23.7008C63.9386 18.9839 62.8784 14.8321 60.7595 11.2343" fill="white"/>
</mask>
<g mask="url(#mask1_39_338)">
<mask id="mask2_39_338" style="mask-type:luminance" maskUnits="userSpaceOnUse" x="-1" y="-1" width="66" height="49">
<path d="M64.1232 -0.332642H-0.267578V47.7567H64.1232V-0.332642Z" fill="white"/>
</mask>
<g mask="url(#mask2_39_338)">
<mask id="mask3_39_338" style="mask-type:luminance" maskUnits="userSpaceOnUse" x="0" y="0" width="65" height="48">
<path d="M0 6.10352e-05H64.0326V47.459H0V6.10352e-05Z" fill="white"/>
</mask>
<g mask="url(#mask3_39_338)">
<mask id="mask4_39_338" style="mask-type:luminance" maskUnits="userSpaceOnUse" x="0" y="0" width="64" height="48">
<path d="M56.6348 34.2124C54.9665 37.2021 52.7298 39.4754 49.9137 41.0594C47.0991 42.6433 44.0028 43.4298 40.6295 43.4298C37.2546 43.4298 34.1503 42.6386 31.315 41.0594C28.4798 39.4802 26.2272 37.2021 24.5652 34.2124C22.8969 31.2228 22.0579 27.7141 22.0579 23.6961C22.0579 19.6653 22.8969 16.1646 24.5652 13.1797C26.2224 10.1901 28.4798 7.91678 31.315 6.3328C34.1503 4.74882 37.2577 3.9624 40.6327 3.9624C43.9662 3.9624 47.0545 4.752 49.8898 6.3328C52.725 7.912 54.9697 10.1901 56.6396 13.1797C58.308 16.1694 59.1342 19.6653 59.1342 23.6961C59.1342 27.7141 58.3048 31.2228 56.6396 34.2124M60.7627 11.2312C58.6407 7.64455 55.7959 4.86662 52.2236 2.92127C48.6544 0.972736 44.7892 6.10352e-05 40.6327 6.10352e-05C36.4761 6.10352e-05 32.6236 0.972736 29.0465 2.92127C25.4774 4.8698 22.6246 7.64455 20.4739 11.2312C19.0969 13.5554 18.1608 16.0993 17.6785 18.8948H17.5257C16.5689 19.1543 14.4293 19.28 11.0958 19.28H4.92546V4.74404H12.3964C15.6328 4.74404 17.7836 4.8698 18.8167 5.12929H19.2147V0.972736H0V1.37072C0.249934 2.31315 0.383657 4.46545 0.383657 7.79101V39.6011C0.383657 42.9267 0.249934 45.0774 0 46.0214V46.4194H5.32344V46.0214C5.06396 45.0774 4.93024 42.9267 4.93024 39.6011V23.0513H11.0958C14.1619 23.0513 16.2171 23.158 17.2662 23.3793V23.7009C17.2662 28.4162 18.3344 32.568 20.4739 36.1657C22.6246 39.7508 25.4774 42.5255 29.0465 44.4741C32.6236 46.4226 36.4809 47.3953 40.6327 47.3953C44.786 47.3953 48.6544 46.4226 52.2188 44.4741C55.7959 42.5255 58.6407 39.7508 60.7595 36.1657C62.8816 32.568 63.9386 28.4162 63.9386 23.7009C63.9386 18.9839 62.8784 14.8322 60.7595 11.2344" fill="white"/>
</mask>
<g mask="url(#mask4_39_338)">
<path d="M0 6.10352e-05H63.867V47.3921H0V6.10352e-05Z" fill="#EFE4DB"/>
</g>
</g>
</g>
</g>
</g>
<mask id="mask5_39_338" style="mask-type:luminance" maskUnits="userSpaceOnUse" x="69" y="0" width="58" height="47">
<path d="M69.0537 0.685303H127V46.8913H69.0537V0.685303Z" fill="white"/>
</mask>
<g mask="url(#mask5_39_338)">
<mask id="mask6_39_338" style="mask-type:luminance" maskUnits="userSpaceOnUse" x="69" y="0" width="58" height="47">
<path d="M100.867 25.1549L106.904 10.3563L112.81 25.1549H100.867ZM123.578 39.9616L107.289 0.685242H106.709L90.3507 39.9616C89.9447 40.9549 89.5595 41.8416 89.1838 42.6233C88.1427 42.8828 86.0031 43.0085 82.7539 43.0085H73.9871V8.14825C73.9871 4.82269 74.1129 2.67039 74.3724 1.72637V1.33316H69.0537V1.73115C69.3132 2.67039 69.4501 4.82269 69.4501 8.14825V39.9616C69.4501 43.2028 69.3164 45.3503 69.0537 46.3834V46.7798H92.1607L99.3722 28.9231H114.362L121.573 46.7767H126.961V46.2529C126.13 45.4347 125.012 43.3317 123.578 39.9584" fill="white"/>
</mask>
<g mask="url(#mask6_39_338)">
<mask id="mask7_39_338" style="mask-type:luminance" maskUnits="userSpaceOnUse" x="68" y="0" width="59" height="47">
<path d="M126.999 0.432129H68.7217V46.8913H126.999V0.432129Z" fill="white"/>
</mask>
<g mask="url(#mask7_39_338)">
<mask id="mask8_39_338" style="mask-type:luminance" maskUnits="userSpaceOnUse" x="69" y="0" width="58" height="47">
<path d="M69.0537 0.685181H127V46.8371H69.0537V0.685181Z" fill="white"/>
</mask>
<g mask="url(#mask8_39_338)">
<mask id="mask9_39_338" style="mask-type:luminance" maskUnits="userSpaceOnUse" x="69" y="0" width="58" height="47">
<path d="M100.867 25.1548L106.904 10.3562L112.81 25.1548H100.867ZM123.578 39.9614L107.289 0.68512H106.709L90.3507 39.9614C89.9447 40.9548 89.5595 41.8415 89.1838 42.6232C88.1427 42.8827 86.0031 43.0084 82.7539 43.0084H73.9871V8.14813C73.9871 4.82257 74.1129 2.67027 74.3724 1.72625V1.33304H69.0537V1.73102C69.3132 2.67027 69.4501 4.82257 69.4501 8.14813V39.9614C69.4501 43.2026 69.3164 45.3502 69.0537 46.3833V46.7797H92.1607L99.3722 28.9229H114.362L121.573 46.7765H126.961V46.2528C126.13 45.4345 125.012 43.3316 123.578 39.9583" fill="white"/>
</mask>
<g mask="url(#mask9_39_338)">
<path d="M69.0537 0.68512H127.026V46.7765H69.0537V0.68512Z" fill="#EFE4DB"/>
</g>
</g>
</g>
</g>
</g>
</svg>
