<svg width="127" height="48" viewBox="0 0 127 48" fill="none" xmlns="http://www.w3.org/2000/svg">
<mask id="mask0_39_568" style="mask-type:luminance" maskUnits="userSpaceOnUse" x="0" y="0" width="65" height="48">
<path d="M0 0H64.0517V47.5767H0V0Z" fill="white"/>
</mask>
<g mask="url(#mask0_39_568)">
<mask id="mask1_39_568" style="mask-type:luminance" maskUnits="userSpaceOnUse" x="0" y="0" width="64" height="48">
<path d="M56.6348 34.2124C54.9665 37.202 52.7298 39.4753 49.9137 41.0593C47.0991 42.6433 44.0028 43.4297 40.6295 43.4297C37.2546 43.4297 34.1503 42.6385 31.315 41.0593C28.4798 39.4801 26.2272 37.202 24.5652 34.2124C22.8969 31.2227 22.0579 27.7141 22.0579 23.696C22.0579 19.6652 22.8969 16.1646 24.5652 13.1797C26.2224 10.19 28.4798 7.91671 31.315 6.33273C34.1503 4.74875 37.2577 3.96234 40.6327 3.96234C43.9662 3.96234 47.0545 4.75194 49.8898 6.33273C52.725 7.91194 54.9697 10.19 56.6396 13.1797C58.308 16.1693 59.1342 19.6652 59.1342 23.696C59.1342 27.7141 58.3048 31.2227 56.6396 34.2124M60.7627 11.2311C58.6407 7.64449 55.7959 4.86656 52.2236 2.92121C48.6544 0.972675 44.7892 0 40.6327 0C36.4761 0 32.6236 0.972675 29.0465 2.92121C25.4774 4.86974 22.6246 7.64449 20.4739 11.2311C19.0969 13.5554 18.1608 16.0993 17.6785 18.8947H17.5257C16.5689 19.1542 14.4293 19.28 11.0958 19.28H4.92546V4.74398H12.3964C15.6328 4.74398 17.7836 4.86974 18.8167 5.12923H19.2147V0.972675H0V1.37066C0.249934 2.31309 0.383657 4.46539 0.383657 7.79095V39.6011C0.383657 42.9266 0.249934 45.0774 0 46.0214V46.4194H5.32344V46.0214C5.06396 45.0774 4.93024 42.9266 4.93024 39.6011V23.0513H11.0958C14.1619 23.0513 16.2171 23.1579 17.2662 23.3792V23.7008C17.2662 28.4161 18.3344 32.5679 20.4739 36.1657C22.6246 39.7507 25.4774 42.5255 29.0465 44.474C32.6236 46.4225 36.4809 47.3952 40.6327 47.3952C44.786 47.3952 48.6544 46.4225 52.2188 44.474C55.7959 42.5255 58.6407 39.7507 60.7595 36.1657C62.8816 32.5679 63.9386 28.4161 63.9386 23.7008C63.9386 18.9839 62.8784 14.8321 60.7595 11.2343" fill="white"/>
</mask>
<g mask="url(#mask1_39_568)">
<mask id="mask2_39_568" style="mask-type:luminance" maskUnits="userSpaceOnUse" x="-1" y="-1" width="66" height="49">
<path d="M64.1232 -0.333008H-0.267578V47.7563H64.1232V-0.333008Z" fill="white"/>
</mask>
<g mask="url(#mask2_39_568)">
<mask id="mask3_39_568" style="mask-type:luminance" maskUnits="userSpaceOnUse" x="0" y="0" width="65" height="48">
<path d="M0 0H64.0326V47.4589H0V0Z" fill="white"/>
</mask>
<g mask="url(#mask3_39_568)">
<mask id="mask4_39_568" style="mask-type:luminance" maskUnits="userSpaceOnUse" x="0" y="0" width="64" height="48">
<path d="M56.6348 34.2124C54.9665 37.202 52.7298 39.4753 49.9137 41.0593C47.0991 42.6433 44.0028 43.4297 40.6295 43.4297C37.2546 43.4297 34.1503 42.6385 31.315 41.0593C28.4798 39.4801 26.2272 37.202 24.5652 34.2124C22.8969 31.2227 22.0579 27.7141 22.0579 23.696C22.0579 19.6652 22.8969 16.1646 24.5652 13.1797C26.2224 10.19 28.4798 7.91671 31.315 6.33273C34.1503 4.74875 37.2577 3.96234 40.6327 3.96234C43.9662 3.96234 47.0545 4.75194 49.8898 6.33273C52.725 7.91194 54.9697 10.19 56.6396 13.1797C58.308 16.1693 59.1342 19.6652 59.1342 23.696C59.1342 27.7141 58.3048 31.2227 56.6396 34.2124M60.7627 11.2311C58.6407 7.64449 55.7959 4.86656 52.2236 2.92121C48.6544 0.972675 44.7892 0 40.6327 0C36.4761 0 32.6236 0.972675 29.0465 2.92121C25.4774 4.86974 22.6246 7.64449 20.4739 11.2311C19.0969 13.5554 18.1608 16.0993 17.6785 18.8947H17.5257C16.5689 19.1542 14.4293 19.28 11.0958 19.28H4.92546V4.74398H12.3964C15.6328 4.74398 17.7836 4.86974 18.8167 5.12923H19.2147V0.972675H0V1.37066C0.249934 2.31309 0.383657 4.46539 0.383657 7.79095V39.6011C0.383657 42.9266 0.249934 45.0774 0 46.0214V46.4194H5.32344V46.0214C5.06396 45.0774 4.93024 42.9266 4.93024 39.6011V23.0513H11.0958C14.1619 23.0513 16.2171 23.1579 17.2662 23.3792V23.7008C17.2662 28.4161 18.3344 32.5679 20.4739 36.1657C22.6246 39.7507 25.4774 42.5255 29.0465 44.474C32.6236 46.4225 36.4809 47.3952 40.6327 47.3952C44.786 47.3952 48.6544 46.4225 52.2188 44.474C55.7959 42.5255 58.6407 39.7507 60.7595 36.1657C62.8816 32.5679 63.9386 28.4161 63.9386 23.7008C63.9386 18.9839 62.8784 14.8321 60.7595 11.2343" fill="white"/>
</mask>
<g mask="url(#mask4_39_568)">
<path d="M0 0H63.867V47.392H0V0Z" fill="#221001"/>
</g>
</g>
</g>
</g>
</g>
<mask id="mask5_39_568" style="mask-type:luminance" maskUnits="userSpaceOnUse" x="69" y="0" width="58" height="47">
<path d="M69.0537 0.685547H127V46.8916H69.0537V0.685547Z" fill="white"/>
</mask>
<g mask="url(#mask5_39_568)">
<mask id="mask6_39_568" style="mask-type:luminance" maskUnits="userSpaceOnUse" x="69" y="0" width="58" height="47">
<path d="M100.867 25.1552L106.904 10.3566L112.81 25.1552H100.867ZM123.578 39.9619L107.289 0.685547H106.709L90.3507 39.9619C89.9447 40.9552 89.5595 41.842 89.1838 42.6236C88.1427 42.8831 86.0031 43.0088 82.7539 43.0088H73.9871V8.14856C73.9871 4.823 74.1129 2.6707 74.3724 1.72668V1.33347H69.0537V1.73145C69.3132 2.6707 69.4501 4.823 69.4501 8.14856V39.9619C69.4501 43.2031 69.3164 45.3506 69.0537 46.3838V46.7801H92.1607L99.3722 28.9234H114.362L121.573 46.777H126.961V46.2532C126.13 45.435 125.012 43.332 123.578 39.9587" fill="white"/>
</mask>
<g mask="url(#mask6_39_568)">
<mask id="mask7_39_568" style="mask-type:luminance" maskUnits="userSpaceOnUse" x="68" y="0" width="59" height="47">
<path d="M126.999 0.432617H68.7217V46.8918H126.999V0.432617Z" fill="white"/>
</mask>
<g mask="url(#mask7_39_568)">
<mask id="mask8_39_568" style="mask-type:luminance" maskUnits="userSpaceOnUse" x="69" y="0" width="58" height="47">
<path d="M69.0537 0.685547H127V46.8375H69.0537V0.685547Z" fill="white"/>
</mask>
<g mask="url(#mask8_39_568)">
<mask id="mask9_39_568" style="mask-type:luminance" maskUnits="userSpaceOnUse" x="69" y="0" width="58" height="47">
<path d="M100.867 25.1552L106.904 10.3566L112.81 25.1552H100.867ZM123.578 39.9619L107.289 0.685547H106.709L90.3507 39.9619C89.9447 40.9552 89.5595 41.842 89.1838 42.6236C88.1427 42.8831 86.0031 43.0088 82.7539 43.0088H73.9871V8.14856C73.9871 4.823 74.1129 2.6707 74.3724 1.72667V1.33347H69.0537V1.73145C69.3132 2.6707 69.4501 4.823 69.4501 8.14856V39.9619C69.4501 43.2031 69.3164 45.3506 69.0537 46.3838V46.7801H92.1607L99.3722 28.9234H114.362L121.573 46.777H126.961V46.2532C126.13 45.435 125.012 43.332 123.578 39.9587" fill="white"/>
</mask>
<g mask="url(#mask9_39_568)">
<path d="M69.0537 0.685547H127.026V46.777H69.0537V0.685547Z" fill="#221001"/>
</g>
</g>
</g>
</g>
</g>
</svg>
