<svg width="740" height="277" viewBox="0 0 740 277" fill="none" xmlns="http://www.w3.org/2000/svg">
<mask id="mask0_39_660" style="mask-type:luminance" maskUnits="userSpaceOnUse" x="0" y="0" width="373" height="277">
<path d="M0 0H372.92V277H0V0Z" fill="white"/>
</mask>
<g mask="url(#mask0_39_660)">
<mask id="mask1_39_660" style="mask-type:luminance" maskUnits="userSpaceOnUse" x="0" y="0" width="373" height="276">
<path d="M329.738 199.19C320.025 216.597 307.002 229.832 290.606 239.055C274.219 248.277 256.192 252.855 236.552 252.855C216.903 252.855 198.829 248.249 182.322 239.055C165.814 229.86 152.699 216.597 143.023 199.19C133.31 181.784 128.425 161.356 128.425 137.962C128.425 114.494 133.31 94.1129 143.023 76.7344C152.672 59.328 165.814 46.0925 182.322 36.8703C198.829 27.6481 216.921 23.0694 236.571 23.0694C255.979 23.0694 273.96 27.6666 290.467 36.8703C306.975 46.0647 320.043 59.328 329.766 76.7344C339.479 94.1407 344.29 114.494 344.29 137.962C344.29 161.356 339.461 181.784 329.766 199.19M353.771 65.3896C341.416 44.5076 324.854 28.334 304.055 17.0078C283.275 5.66309 260.771 0 236.571 0C212.37 0 189.94 5.66309 169.114 17.0078C148.334 28.3525 131.725 44.5076 119.203 65.3896C111.186 78.9217 105.736 93.7329 102.927 110.008H102.038C96.4671 111.519 84.0102 112.251 64.6018 112.251H28.6769V27.6203H72.1742C91.0172 27.6203 103.539 28.3525 109.554 29.8633H111.871V5.66309H0V7.98023C1.45516 13.4672 2.23372 25.9983 2.23372 45.3603V230.565C2.23372 249.927 1.45516 262.448 0 267.945V270.262H30.994V267.945C29.4833 262.448 28.7047 249.927 28.7047 230.565V134.209H64.6018C82.4531 134.209 94.4188 134.83 100.527 136.118V137.99C100.527 165.444 106.746 189.616 119.203 210.563C131.725 231.436 148.334 247.591 169.114 258.936C189.94 270.28 212.398 275.943 236.571 275.943C260.752 275.943 283.275 270.28 304.027 258.936C324.854 247.591 341.416 231.436 353.753 210.563C366.108 189.616 372.262 165.444 372.262 137.99C372.262 110.528 366.089 86.3551 353.753 65.4082" fill="white"/>
</mask>
<g mask="url(#mask1_39_660)">
<mask id="mask2_39_660" style="mask-type:luminance" maskUnits="userSpaceOnUse" x="-2" y="-2" width="376" height="281">
<path d="M373.338 -1.93726H-1.55664V278.047H373.338V-1.93726Z" fill="white"/>
</mask>
<g mask="url(#mask2_39_660)">
<mask id="mask3_39_660" style="mask-type:luminance" maskUnits="userSpaceOnUse" x="0" y="0" width="373" height="277">
<path d="M0 0H372.809V276.314H0V0Z" fill="white"/>
</mask>
<g mask="url(#mask3_39_660)">
<mask id="mask4_39_660" style="mask-type:luminance" maskUnits="userSpaceOnUse" x="0" y="0" width="373" height="276">
<path d="M329.738 199.19C320.025 216.597 307.002 229.832 290.606 239.055C274.219 248.277 256.192 252.855 236.552 252.855C216.903 252.855 198.829 248.249 182.322 239.055C165.814 229.86 152.699 216.597 143.023 199.19C133.31 181.784 128.425 161.356 128.425 137.962C128.425 114.494 133.31 94.1129 143.023 76.7344C152.672 59.328 165.814 46.0925 182.322 36.8703C198.829 27.6481 216.921 23.0694 236.571 23.0694C255.979 23.0694 273.96 27.6666 290.467 36.8703C306.975 46.0647 320.043 59.328 329.766 76.7344C339.479 94.1407 344.29 114.494 344.29 137.962C344.29 161.356 339.461 181.784 329.766 199.19M353.771 65.3896C341.416 44.5076 324.854 28.334 304.055 17.0078C283.275 5.66309 260.771 0 236.571 0C212.37 0 189.94 5.66309 169.114 17.0078C148.334 28.3525 131.725 44.5076 119.203 65.3896C111.186 78.9217 105.736 93.7329 102.927 110.008H102.038C96.4671 111.519 84.0102 112.251 64.6018 112.251H28.6769V27.6203H72.1742C91.0172 27.6203 103.539 28.3525 109.554 29.8633H111.871V5.66309H0V7.98023C1.45516 13.4672 2.23372 25.9983 2.23372 45.3603V230.565C2.23372 249.927 1.45516 262.448 0 267.945V270.262H30.994V267.945C29.4833 262.448 28.7047 249.927 28.7047 230.565V134.209H64.6018C82.4531 134.209 94.4188 134.83 100.527 136.118V137.99C100.527 165.444 106.746 189.616 119.203 210.563C131.725 231.436 148.334 247.591 169.114 258.936C189.94 270.28 212.398 275.943 236.571 275.943C260.752 275.943 283.275 270.28 304.027 258.936C324.854 247.591 341.416 231.436 353.753 210.563C366.108 189.616 372.262 165.444 372.262 137.99C372.262 110.528 366.089 86.3551 353.753 65.4082" fill="white"/>
</mask>
<g mask="url(#mask4_39_660)">
<path d="M0 0H371.845V275.925H0V0Z" fill="#4A4C40"/>
</g>
</g>
</g>
</g>
</g>
<mask id="mask5_39_660" style="mask-type:luminance" maskUnits="userSpaceOnUse" x="402" y="3" width="338" height="271">
<path d="M402.041 3.98999H739.416V273.01H402.041V3.98999Z" fill="white"/>
</mask>
<g mask="url(#mask5_39_660)">
<mask id="mask6_39_660" style="mask-type:luminance" maskUnits="userSpaceOnUse" x="402" y="3" width="338" height="270">
<path d="M587.264 146.457L622.41 60.2965L656.796 146.457H587.264ZM719.489 232.664L624.653 3.98999H621.279L526.036 232.664C523.672 238.447 521.429 243.61 519.242 248.161C513.18 249.672 500.723 250.404 481.806 250.404H430.764V47.441C430.764 28.079 431.496 15.5479 433.007 10.0516V7.76229H402.041V10.0794C403.552 15.5479 404.349 28.079 404.349 47.441V232.664C404.349 251.535 403.57 264.038 402.041 270.053V272.361H536.574L578.561 168.396H665.833L707.82 272.342H739.185V269.293C734.346 264.529 727.84 252.285 719.489 232.645" fill="white"/>
</mask>
<g mask="url(#mask6_39_660)">
<mask id="mask7_39_660" style="mask-type:luminance" maskUnits="userSpaceOnUse" x="400" y="2" width="340" height="272">
<path d="M739.418 2.51636H400.115V273.01H739.418V2.51636Z" fill="white"/>
</mask>
<g mask="url(#mask7_39_660)">
<mask id="mask8_39_660" style="mask-type:luminance" maskUnits="userSpaceOnUse" x="402" y="3" width="338" height="270">
<path d="M402.043 3.98999H739.418V272.695H402.043V3.98999Z" fill="white"/>
</mask>
<g mask="url(#mask8_39_660)">
<mask id="mask9_39_660" style="mask-type:luminance" maskUnits="userSpaceOnUse" x="402" y="3" width="338" height="270">
<path d="M587.266 146.457L622.412 60.2965L656.798 146.457H587.266ZM719.491 232.664L624.655 3.98999H621.281L526.038 232.664C523.674 238.447 521.431 243.61 519.244 248.161C513.182 249.672 500.725 250.404 481.808 250.404H430.766V47.441C430.766 28.079 431.498 15.5479 433.009 10.0516V7.76229H402.043V10.0794C403.554 15.5479 404.351 28.079 404.351 47.441V232.664C404.351 251.535 403.572 264.038 402.043 270.053V272.361H536.576L578.563 168.396H665.835L707.822 272.342H739.187V269.293C734.348 264.529 727.842 252.285 719.491 232.645" fill="white"/>
</mask>
<g mask="url(#mask9_39_660)">
<path d="M402.043 3.98999H739.567V272.342H402.043V3.98999Z" fill="#4A4C40"/>
</g>
</g>
</g>
</g>
</g>
</svg>
