<svg width="758" height="284" viewBox="0 0 758 284" fill="none" xmlns="http://www.w3.org/2000/svg">
<mask id="mask0_39_614" style="mask-type:luminance" maskUnits="userSpaceOnUse" x="0" y="0" width="383" height="284">
<path d="M0 0H382.293V283.962H0V0Z" fill="white"/>
</mask>
<g mask="url(#mask0_39_614)">
<mask id="mask1_39_614" style="mask-type:luminance" maskUnits="userSpaceOnUse" x="0" y="0" width="382" height="283">
<path d="M338.025 204.197C328.068 222.04 314.718 235.609 297.91 245.063C281.111 254.517 262.631 259.21 242.497 259.21C222.354 259.21 203.826 254.488 186.904 245.063C169.982 235.637 156.537 222.04 146.618 204.197C136.66 186.353 131.653 165.412 131.653 141.43C131.653 117.372 136.66 96.4782 146.618 78.6629C156.509 60.8191 169.982 47.2509 186.904 37.797C203.826 28.343 222.373 23.6492 242.516 23.6492C262.412 23.6492 280.845 28.362 297.767 37.797C314.69 47.2224 328.087 60.8191 338.054 78.6629C348.011 96.5067 352.943 117.372 352.943 141.43C352.943 165.412 347.992 186.353 338.054 204.197M362.663 67.0331C349.997 45.6262 333.018 29.0461 311.697 17.4352C290.394 5.80541 267.325 0 242.516 0C217.708 0 194.714 5.80541 173.364 17.4352C152.062 29.0651 135.035 45.6262 122.199 67.0331C113.98 80.9052 108.393 96.0886 105.514 112.773H104.602C98.8916 114.322 86.1216 115.073 66.2254 115.073H29.3976V28.3145H73.9881C93.3047 28.3145 106.141 29.0651 112.308 30.6138H114.683V5.80541H0V8.18079C1.49173 13.8057 2.28986 26.6517 2.28986 46.5003V236.359C2.28986 256.208 1.49173 269.044 0 274.679V277.054H31.773V274.679C30.2243 269.044 29.4261 256.208 29.4261 236.359V137.582H66.2254C84.5253 137.582 96.7917 138.218 103.053 139.539V141.458C103.053 169.602 109.429 194.382 122.199 215.855C135.035 237.252 152.062 253.813 173.364 265.443C194.714 277.073 217.736 282.879 242.516 282.879C267.306 282.879 290.394 277.073 311.668 265.443C333.018 253.813 349.997 237.252 362.644 215.855C375.309 194.382 381.618 169.602 381.618 141.458C381.618 113.305 375.29 88.5254 362.644 67.0521" fill="white"/>
</mask>
<g mask="url(#mask1_39_614)">
<mask id="mask2_39_614" style="mask-type:luminance" maskUnits="userSpaceOnUse" x="-2" y="-2" width="385" height="288">
<path d="M382.719 -1.98633H-1.59766V285.035H382.719V-1.98633Z" fill="white"/>
</mask>
<g mask="url(#mask2_39_614)">
<mask id="mask3_39_614" style="mask-type:luminance" maskUnits="userSpaceOnUse" x="0" y="0" width="383" height="284">
<path d="M0 0H382.179V283.259H0V0Z" fill="white"/>
</mask>
<g mask="url(#mask3_39_614)">
<mask id="mask4_39_614" style="mask-type:luminance" maskUnits="userSpaceOnUse" x="0" y="0" width="382" height="283">
<path d="M338.025 204.197C328.068 222.04 314.718 235.609 297.91 245.063C281.111 254.517 262.631 259.21 242.497 259.21C222.354 259.21 203.826 254.488 186.904 245.063C169.982 235.637 156.537 222.04 146.618 204.197C136.66 186.353 131.653 165.412 131.653 141.43C131.653 117.372 136.66 96.4782 146.618 78.6629C156.509 60.8191 169.982 47.2509 186.904 37.797C203.826 28.343 222.373 23.6492 242.516 23.6492C262.412 23.6492 280.845 28.362 297.767 37.797C314.69 47.2224 328.087 60.8191 338.054 78.6629C348.011 96.5067 352.943 117.372 352.943 141.43C352.943 165.412 347.992 186.353 338.054 204.197M362.663 67.0331C349.997 45.6262 333.018 29.0461 311.697 17.4352C290.394 5.80541 267.325 0 242.516 0C217.708 0 194.714 5.80541 173.364 17.4352C152.062 29.0651 135.035 45.6262 122.199 67.0331C113.98 80.9052 108.393 96.0886 105.514 112.773H104.602C98.8916 114.322 86.1216 115.073 66.2254 115.073H29.3976V28.3145H73.9881C93.3047 28.3145 106.141 29.0651 112.308 30.6138H114.683V5.80541H0V8.18079C1.49173 13.8057 2.28986 26.6517 2.28986 46.5003V236.359C2.28986 256.208 1.49173 269.044 0 274.679V277.054H31.773V274.679C30.2243 269.044 29.4261 256.208 29.4261 236.359V137.582H66.2254C84.5253 137.582 96.7917 138.218 103.053 139.539V141.458C103.053 169.602 109.429 194.382 122.199 215.855C135.035 237.252 152.062 253.813 173.364 265.443C194.714 277.073 217.736 282.879 242.516 282.879C267.306 282.879 290.394 277.073 311.668 265.443C333.018 253.813 349.997 237.252 362.644 215.855C375.309 194.382 381.618 169.602 381.618 141.458C381.618 113.305 375.29 88.5254 362.644 67.0521" fill="white"/>
</mask>
<g mask="url(#mask4_39_614)">
<path d="M0 0H381.191V282.859H0V0Z" fill="#F4F1EE"/>
</g>
</g>
</g>
</g>
</g>
<mask id="mask5_39_614" style="mask-type:luminance" maskUnits="userSpaceOnUse" x="412" y="4" width="346" height="276">
<path d="M412.146 4.09082H758V279.872H412.146V4.09082Z" fill="white"/>
</mask>
<g mask="url(#mask5_39_614)">
<mask id="mask6_39_614" style="mask-type:luminance" maskUnits="userSpaceOnUse" x="412" y="4" width="346" height="276">
<path d="M602.023 150.138L638.053 61.8124L673.304 150.138H602.023ZM737.572 238.512L640.352 4.09082H636.894L539.257 238.512C536.834 244.441 534.534 249.733 532.292 254.398C526.078 255.947 513.308 256.698 493.915 256.698H441.591V48.6338C441.591 28.7852 442.341 15.9392 443.89 10.3048V7.95793H412.146V10.3333C413.694 15.9392 414.511 28.7852 414.511 48.6338V238.512C414.511 257.857 413.713 270.674 412.146 276.841V279.207H550.06L593.102 172.628H682.568L725.609 279.188H757.762V276.062C752.803 271.178 746.133 258.626 737.572 238.493" fill="white"/>
</mask>
<g mask="url(#mask6_39_614)">
<mask id="mask7_39_614" style="mask-type:luminance" maskUnits="userSpaceOnUse" x="410" y="2" width="348" height="278">
<path d="M757.994 2.58008H410.163V279.872H757.994V2.58008Z" fill="white"/>
</mask>
<g mask="url(#mask7_39_614)">
<mask id="mask8_39_614" style="mask-type:luminance" maskUnits="userSpaceOnUse" x="412" y="4" width="346" height="276">
<path d="M412.146 4.09082H758V279.549H412.146V4.09082Z" fill="white"/>
</mask>
<g mask="url(#mask8_39_614)">
<mask id="mask9_39_614" style="mask-type:luminance" maskUnits="userSpaceOnUse" x="412" y="4" width="346" height="276">
<path d="M602.023 150.138L638.053 61.8124L673.304 150.138H602.023ZM737.572 238.512L640.352 4.09082H636.894L539.257 238.512C536.834 244.441 534.534 249.733 532.292 254.398C526.078 255.947 513.308 256.698 493.915 256.698H441.591V48.6338C441.591 28.7852 442.341 15.9392 443.89 10.3048V7.95793H412.146V10.3333C413.694 15.9392 414.511 28.7852 414.511 48.6338V238.512C414.511 257.857 413.713 270.674 412.146 276.841V279.207H550.06L593.102 172.628H682.568L725.609 279.188H757.762V276.062C752.803 271.178 746.133 258.626 737.572 238.493" fill="white"/>
</mask>
<g mask="url(#mask9_39_614)">
<path d="M412.146 4.09082H758.152V279.188H412.146V4.09082Z" fill="#F4F1EE"/>
</g>
</g>
</g>
</g>
</g>
</svg>
